<?xml version="1.0" encoding="utf-8"?>
<!-- Generator: Adobe Illustrator 25.3.1, SVG Export Plug-In . SVG Version: 6.00 Build 0)  -->
<svg version="1.1" id="Layer_1" xmlns="http://www.w3.org/2000/svg" xmlns:xlink="http://www.w3.org/1999/xlink" x="0px" y="0px"
	 viewBox="0 0 2351.6 559.4" style="enable-background:new 0 0 2351.6 559.4;" xml:space="preserve">
<style type="text/css">
	.st0{fill-rule:evenodd;clip-rule:evenodd;fill:#3972B7;}
	.st1{fill-rule:evenodd;clip-rule:evenodd;fill:#EEBE5E;}
	.st2{fill-rule:evenodd;clip-rule:evenodd;fill:#223D7D;}
	.st3{fill-rule:evenodd;clip-rule:evenodd;fill:#FFFFFF;}
</style>
<path class="st0" d="M-1.2,558.8h2354.9v-560H-1.2V558.8L-1.2,558.8z"/>
<path class="st1" d="M565.1,560.8h1784.6v-180H565.1V560.8z"/>
<path class="st2" d="M667.5,516.4h11.2v-79h-11.2V516.4z M762.5,437.3h15.7l35.8,63.9v-63.9h12.3v79h-14.5l-36.9-65h-1.1v65h-11.2
	L762.5,437.3L762.5,437.3z M925.8,447.1h-25.7v-9.7h62.6v9.7H937v69.3h-11.2V447.1z M1037.6,437.3h45.8v9.7h-34.7v23.8h31.3v9.7
	h-31.3v26h34.7v9.7h-45.8V437.3L1037.6,437.3z M1164,437.3h20.1c15.7,0,31.3,2.2,31.3,21.7c0,9.7-7.8,16.3-16.8,17.3v1.1
	c3.4,1.1,5.6,2.2,7.8,7.6l15.7,31.4h-13.4l-12.3-27c-3.4-7.6-7.8-7.6-13.4-7.6h-7.8v34.7H1164L1164,437.3L1164,437.3L1164,437.3z
	 M1175.1,470.9h10.1c11.2,0,17.9-4.3,17.9-11.9c0-7.6-5.6-11.9-16.8-11.9h-11.2V470.9L1175.1,470.9L1175.1,470.9z M1298.1,437.3
	h15.7l35.8,63.9h1.1v-63.9h11.2v79h-14.5l-36.9-65v65h-12.3L1298.1,437.3L1298.1,437.3z M1471.5,437.3h12.3l33.5,79H1505l-7.8-20.6
	h-40.3l-7.8,20.6h-12.3L1471.5,437.3L1471.5,437.3z M1477.1,448.2l-16.8,39h32.4L1477.1,448.2z M1600.1,447.1h-25.7v-9.7h62.6v9.7
	h-25.7v69.3h-11.2L1600.1,447.1L1600.1,447.1z M1710.8,516.4h12.3v-79h-12.3V516.4z M1841.6,436.3c24.6,0,39.1,17.3,39.1,40
	c0,24.9-14.5,41.2-39.1,41.2s-39.1-16.3-39.1-41.2C1802.4,453.6,1817,436.3,1841.6,436.3z M1841.6,507.8c17.9,0,26.8-15.2,26.8-31.4
	c0-15.2-8.9-30.3-26.8-30.3s-26.8,15.2-26.8,30.3C1814.7,492.6,1822.6,507.8,1841.6,507.8z M1960.1,437.3h15.7l35.8,63.9v-63.9h11.2
	v79h-14.5l-36.9-65v65h-11.2L1960.1,437.3L1960.1,437.3z M2132.3,437.3h12.3l34.7,79h-13.4l-7.8-20.6h-40.3l-7.8,20.6h-12.3
	L2132.3,437.3L2132.3,437.3z M2137.9,448.2l-15.7,39h31.3L2137.9,448.2z M2253.1,437.3h12.3v69.3h33.6v9.7h-45.8v-79H2253.1z
	 M-1.2,560.8h580.4v-562H-1.2V560.8L-1.2,560.8z"/>
<path class="st3" d="M289.5,78.7c21.2,20.3,44.7,42.7,64.8,63L330.9,172v2.2l61.5,27l42.5-28.1l-25.7-29.2v-2.3
	c26.8-18,49.2-36,73.8-52.9l-12.3,127.1H107.2l-12.3-127c25.7,16.9,48.1,34.9,73.8,52.9v2.3L143,173.2l42.5,28.1l62.6-27V172
	l-23.5-30.4c20.1-20.3,42.5-42.7,63.7-63L289.5,78.7L289.5,78.7z M468.4,238.4l-4.5,42.8H329.8v146.2h66c14.5,0,30.2-15.8,26.8-25.9
	c-3.4-14.6-16.8-24.7-29.1-31.5c2.2,0,47-33.7,68.2-48.4C460.6,331.7,446,451,446,453.2l-155.4,59.6h-2.2L133,453.3
	c0-2.3-15.7-121.5-16.8-131.6c21.2,14.6,66,48.4,68.2,48.4c-12.3,6.8-24.6,16.9-27.9,31.5c-3.4,10.1,11.2,25.9,26.8,25.9h64.8V281.2
	H114l-3.3-42.7L468.4,238.4L468.4,238.4z M672,165.3c0-41.6-2.2-48.4-32.4-50.6v-4.5l66-2.2c69.3-2.2,73.8,31.5,73.8,45
	c0,22.5-13.4,36-33.5,45l1.1,1.1c21.2,37.1,47,84.4,91.7,93.4v4.5c-29.1-2.3-50.3-1.1-66-16.9c-17.9-19.1-32.4-42.8-38-55.1
	c-10.1-22.5-20.1-15.7-39.1-19.1v43.9c0,30.4,0,36,38,40.5v4.5h-96.2v-4.5c33.5-4.5,33.5-12.4,34.7-40.5L672,165.3L672,165.3z
	 M695.4,201.3c25.7,0,55.9-12.4,55.9-42.7c0-31.5-27.9-45-55.9-45V201.3z"/>
<path class="st3" d="M878.8,296.9c-38,0-67.1-23.6-67.1-63c0-37.1,30.2-63,67.1-63c36.9,0,66,23.6,66,63
	C944.8,269.9,914.6,296.9,878.8,296.9z M877.7,176.6c-29.1,0-40.3,30.4-40.3,56.2c0,24.7,13.4,58.5,42.5,58.5
	c28,0,40.3-31.5,40.3-55.1C920.2,211.4,907.9,176.6,877.7,176.6L877.7,176.6z"/>
<path class="st3" d="M953.7,197.9c-4.5-12.4-5.6-14.6-19-16.9v-4.5h55.9v4.5c-21.2,1.1-15.7,13.5-10.1,27l26.8,69.8l16.8-49.5
	c12.3-34.9,14.5-45-5.6-47.2v-4.5h47v4.5c-11.2,1.1-15.7,5.6-20.1,16.9l-12.3,25.9l-41.4,105.8c-10.1,25.9-16.8,33.8-27.9,33.8
	c-7.8,0-13.4-5.6-13.4-13.5c0-5.6,3.4-11.3,8.9-12.4c2.2,1.1,11.2,6.8,14.5,6.8c5.6,0,10.1-14.6,12.3-18L995,305L953.7,197.9
	L953.7,197.9z M1120.3,227.2c2.2-30.4-5.6-42.7-26.8-42.7c-19,0-16.8,9-16.8,24.7h-13.4c-2.2,0-6.7,1.1-6.7-2.2
	c0-7.9,30.2-36,52.6-36c24.6,0,32.4,19.1,32.4,40.5v39.4c0,23.6-2.2,39.4,23.5,34.9v5.6c-9,3.1-18.5,4.6-28,4.5
	c-11.2,0-15.7-6.8-16.8-16.9c-8.9,9-20.1,18-34.7,18c-16.8,0-26.8-14.6-26.8-30.4c0-4.5,1.1-9,1.1-12.4L1120.3,227.2L1120.3,227.2z
	 M1083.4,250.8c-1.1,3.4-1.1,6.7-1.1,11.2c0,11.3,5.6,21.4,19,21.4c6.7,0,14.5-4.5,19-10.1v-41.6L1083.4,250.8z"/>
<path class="st3" d="M1152.8,294.7V288c19-2.3,21.2-6.8,21.2-24.7v-117c0-11.3,0-14.6-13.4-24.8v-2.2l31.3-12.4l2.2,1.1v155.2
	c0,22.5,1.1,23.6,21.2,27v4.5L1152.8,294.7L1152.8,294.7z M1471.5,227.2c2.2-30.4-4.5-42.7-26.8-42.7c-17.9,0-16.8,9-16.8,24.7
	h-13.4c-2.2,0-5.6,1.1-5.6-2.2c0-7.9,29.1-36,51.4-36c24.6,0,32.4,19.1,32.4,40.5v39.4c0,23.6-2.2,40.5,23.5,34.9v5.6
	c-8.6,3-17.7,4.5-26.8,4.5c-11.2,0-15.7-6.8-17.9-16.9c-7.8,9-20.1,18-33.6,18c-17.9,0-27.9-14.6-27.9-30.4c0-4.5,1.1-9,2.2-12.4
	L1471.5,227.2L1471.5,227.2z M1435.7,250.8c-1.1,3.4-2.2,6.7-2.2,11.2c0,11.3,6.7,21.4,19,21.4c7.8,0,14.5-4.5,19-10.1v-41.6
	L1435.7,250.8z M1393.2,165.3h-4.5c-5.6-31.5-23.5-52.9-55.9-52.9c-49.2,0-77.2,40.5-77.2,87.8c0,54,41.4,91.1,80.5,91.1
	c35.8,0,49.2-27,61.5-56.2l3.4,2.2c-2.3,16.9-7.8,32.6-14.5,48.4c-16.8,9-35.8,12.4-54.8,12.4c-57,0-107.4-33.8-107.4-94.5
	c0-49.5,38-97.9,109.6-97.9c20.1,0,41.4,3.4,59.3,14.6V165.3L1393.2,165.3z M2116.6,227.2c2.3-30.4-5.6-42.7-26.8-42.7
	c-19,0-16.8,9-16.8,23.6l-13.4,1.1c-2.2,0-6.7,0-6.7-2.2c0-7.9,30.2-36,51.5-36c25.7,0,33.5,19.1,33.5,40.5v39.4
	c0,23.6-4.5,39.4,20.1,38.2v4.5c-10.1,3.4-16.8,2.3-24.6,2.3c-11.2,0-15.7-6.8-16.8-16.9c-8.9,9-21.2,18-34.7,18
	c-16.8,0-26.8-14.6-26.8-31.5c0-3.4,0-7.9,1.1-11.2L2116.6,227.2L2116.6,227.2z M2079.8,250.8c-1.1,3.4-2.2,6.7-2.2,11.2
	c0,11.3,6.7,21.4,19,21.4c7.8,0,15.7-4.5,20.1-10.1v-41.6L2079.8,250.8z"/>
<path class="st3" d="M1546.4,263.2c0,21.4,1.1,23.6,26.8,27v4.5H1505V288c19-2.3,20.1-6.8,20.1-27v-50.6c0-11.3,0-14.6-13.4-24.7
	v-2.2l32.4-12.4l3.3,1.1l-1.1,32.6c5.6-14.6,21.3-33.7,38-33.7c7.8,0,14.5,4.5,14.5,12.4s-7.8,14.6-14.5,16.9
	c-4.5-3.4-11.2-9-16.8-9c-23.5,2.2-21.3,39.4-21.3,43.9L1546.4,263.2L1546.4,263.2z M1606.8,294.7v-4.5c20.1-3.4,21.2-6.8,21.2-27
	v-52.9c0-11.3,0-14.6-16.8-24.7v-2.2l34.7-12.4l3.3,1.1v91.1c0,21.4,1.1,23.6,21.3,27v4.5L1606.8,294.7L1606.8,294.7z M1651.5,125.9
	c0,6.8-6.7,13.5-14.5,13.5c-6.7,0-13.4-6.8-13.4-13.5c0-7.9,6.7-14.6,13.4-14.6C1644.8,111.3,1651.5,118.1,1651.5,125.9z
	 M1680.6,146.2c0-11.3,0-14.6-13.4-24.8v-2.2l31.3-12.4l2.3,1.1v78.8c13.4-7.9,30.2-15.7,45.8-15.7c30.2,0,50.3,28.1,50.3,56.2
	c0,48.4-43.6,69.7-73.8,69.7c-15.7,0-27.9-4.5-42.5-11.2L1680.6,146.2L1680.6,146.2z M1700.7,238.4c0,25.9,3.3,50.6,34.7,50.6
	c14.5,0,39.1-12.4,39.1-50.6c0-32.6-22.4-54-48.1-54c-8.9,0-16.8,2.2-25.7,5.6V238.4L1700.7,238.4z M1810.3,146.2
	c0-11.3,0-14.6-13.4-24.8v-2.2l31.3-12.4l2.2,1.1v78.8c13.4-7.9,30.2-15.7,45.8-15.7c30.2,0,50.3,28.1,50.3,56.2
	c0,48.4-43.6,69.7-73.8,69.7c-15.7,0-28-4.5-42.5-11.2L1810.3,146.2L1810.3,146.2z M1830.4,238.4c0,25.9,3.4,50.6,34.7,50.6
	c14.5,0,39.1-12.4,39.1-50.6c0-32.6-22.4-54-48.1-54c-8.9,0-16.8,2.2-25.7,5.6V238.4L1830.4,238.4z M1962.4,224.9
	c-2.2,28.1,16.8,55.1,48.1,55.1c13.4,0,23.5-6.8,31.3-18l4.5,3.4c-10.1,18-29.1,31.5-50.3,31.5c-33.5,0-55.9-28.1-55.9-60.8
	c0-34.9,23.5-65.3,60.4-65.3c24.6,0,40.3,15.7,41.4,40.5h-78.3L1962.4,224.9L1962.4,224.9z M2016,203.6c-2.2-12.4-10.1-27-23.5-27
	c-15.7,0-24.6,15.7-28,29.2L2016,203.6L2016,203.6z M2170.3,210.3c0-11.3,0-14.6-13.4-24.7v-2.2l32.4-12.4l3.3,1.1l-2.2,20.2
	c15.7-11.2,30.2-21.4,47-21.4c33.5,0,34.7,27,34.7,42.7v49.5c0,21.4,1.1,23.6,21.3,27v4.5h-63.7v-4.5c20.1-3.4,21.3-6.8,21.3-27
	v-31.5c0-19.1,1.1-46.1-32.4-46.1c-11.2,0-17.9,3.4-26.8,11.2v66.4c0,21.4,1.1,23.6,21.3,27v4.5h-63.7V289
	c19-1.1,21.2-5.6,21.2-25.9L2170.3,210.3L2170.3,210.3L2170.3,210.3z"/>
</svg>
